<svg width="55" height="55" viewBox="0 0 55 55" fill="none" xmlns="http://www.w3.org/2000/svg">
<path d="M17.1598 7.13601C19.6109 8.58004 22.0156 10.0055 24.4296 11.4145C24.7798 11.6189 24.9218 11.8652 24.9393 12.2791C25.1258 16.6755 23.5731 20.3031 20.2286 23.0991C16.4961 26.2193 12.212 27.3489 7.43662 26.5632C7.34808 26.5486 7.25976 26.5293 7.17372 26.5039C7.13224 26.4917 7.09632 26.4601 7.00075 26.4033C7.00075 26.214 7.00075 25.9908 7.00075 25.7677C7.00071 20.024 6.99819 14.2802 7.00263 8.53645C7.00356 7.33891 7.09276 6.17321 7.98443 5.22966C9.18176 3.96268 11.0408 3.61589 12.554 4.46629C14.0862 5.32736 15.5965 6.22854 17.1598 7.13601Z" fill="white"/>
<path d="M7.02344 40.2584C7.02344 36.776 7.02344 33.362 7.02344 29.8971C9.91074 29.3065 12.7134 29.5432 15.4616 30.5069C18.9205 31.72 21.7194 33.7622 23.4175 37.1453C24.2904 38.8844 24.654 40.7495 24.6283 42.6878C24.6255 42.8985 24.3588 43.1769 24.1451 43.3028C20.7466 45.3039 17.3383 47.2879 13.9281 49.2684C13.3448 49.6071 12.7565 49.9435 12.1458 50.2259C9.9159 51.2569 7.12661 49.4478 7.10426 47.2277C7.08111 44.9274 7.05068 42.6271 7.02344 40.2584Z" fill="white"/>
<path d="M27.3266 16.5167C27.7447 15.6032 28.1404 14.7367 28.5622 13.813C30.9803 15.2308 33.3673 16.6303 35.7618 18.0343C32.9774 24.203 33.0338 30.3927 35.418 36.6768C32.995 38.1022 30.5699 39.5288 28.0922 40.9863C27.1592 39.7604 26.5715 38.3689 26.1959 36.8956C24.4385 30.0032 24.8407 23.2237 27.3266 16.5167Z" fill="#E07020"/>
<path d="M47.3654 25.5238C48.2367 27.462 47.7313 29.3838 45.8898 30.5469C43.7041 31.9274 41.4327 33.1684 39.1103 34.5213C37.1983 29.6609 37.2499 24.9298 39.4119 20.1655C41.3455 21.3002 43.2408 22.3655 45.0839 23.5166C45.8517 23.9961 46.51 24.6563 47.2127 25.2409C47.2773 25.2946 47.3028 25.3964 47.3654 25.5238Z" fill="white"/>
</svg>
