<svg width="201" height="65" viewBox="0 0 201 65" fill="none" xmlns="http://www.w3.org/2000/svg">
<rect width="100%" height="100%" rx="12" ry="12" fill="#0d1117"/>
<path d="M21.4567 12.5122C23.9078 13.9563 26.3125 15.3817 28.7265 16.7908C29.0767 16.9952 29.2186 17.2414 29.2362 17.6554C29.4226 22.0518 27.87 25.6793 24.5255 28.4753C20.793 31.5955 16.5089 32.7251 11.7335 31.9394C11.645 31.9249 11.5566 31.9056 11.4706 31.8801C11.4291 31.8679 11.3932 31.8363 11.2976 31.7795C11.2976 31.5902 11.2976 31.3671 11.2976 31.1439C11.2976 25.4002 11.2951 19.6564 11.2995 13.9127C11.3004 12.7151 11.3896 11.5494 12.2813 10.6059C13.4786 9.3389 15.3376 8.99211 16.8509 9.84251C18.3831 10.7036 19.8934 11.6048 21.4567 12.5122Z" fill="#FEFEFE"/>
<path d="M11.3203 45.6344C11.3203 42.152 11.3203 38.738 11.3203 35.2731C14.2076 34.6825 17.0103 34.9191 19.7585 35.8829C23.2174 37.0959 26.0162 39.1382 27.7143 42.5213C28.5873 44.2604 28.9508 46.1254 28.9252 48.0637C28.9224 48.2745 28.6557 48.5529 28.4419 48.6788C25.0435 50.6799 21.6352 52.6639 18.225 54.6444C17.6417 54.9831 17.0534 55.3195 16.4426 55.6019C14.2128 56.6329 11.4235 54.8237 11.4011 52.6037C11.378 50.3033 11.3476 48.0031 11.3203 45.6344Z" fill="#FEFEFE"/>
<path d="M31.6235 21.8926C32.0415 20.9792 32.4372 20.1127 32.8591 19.189C35.2772 20.6067 37.6642 22.0063 40.0587 23.4103C37.2742 29.579 37.3307 35.7686 39.7149 42.0528C37.2919 43.4782 34.8668 44.9048 32.3891 46.3623C31.4561 45.1364 30.8684 43.7449 30.4928 42.2716C28.7354 35.3791 29.1376 28.5997 31.6235 21.8926Z" fill="#FEFEFE"/>
<path d="M51.6623 30.8998C52.5336 32.838 52.0282 34.7598 50.1867 35.9229C48.001 37.3034 45.7296 38.5444 43.4072 39.8973C41.4952 35.0369 41.5467 30.3057 43.7087 25.5415C45.6423 26.6762 47.5376 27.7415 49.3808 28.8926C50.1486 29.372 50.8069 30.0323 51.5096 30.6169C51.5741 30.6706 51.5997 30.7724 51.6623 30.8998Z" fill="#FEFEFE"/>
<path d="M92.28 25.16C91.08 25.16 90.2267 24.9067 89.72 24.4C89.24 23.8933 89 23.28 89 22.56V21.6C89 20.88 89.24 20.2667 89.72 19.76C90.2267 19.2533 91.08 19 92.28 19C93.48 19 94.32 19.2533 94.8 19.76C95.3067 20.2667 95.56 20.88 95.56 21.6V22.56C95.56 23.28 95.3067 23.8933 94.8 24.4C94.32 24.9067 93.48 25.16 92.28 25.16ZM82.92 44.96H89.72V32.4H82.92V28.36H94.84V44.96H101.16V49H82.92V44.96ZM103.984 49V28.36H109.104V32H109.304C109.758 30.88 110.451 29.92 111.384 29.12C112.344 28.2933 113.664 27.88 115.344 27.88C117.371 27.88 119.011 28.56 120.264 29.92C121.544 31.2533 122.184 33.1733 122.184 35.68V49H117.064V36.4C117.064 33.4133 115.771 31.92 113.184 31.92C112.651 31.92 112.144 31.9867 111.664 32.12C111.184 32.2533 110.744 32.4667 110.344 32.76C109.971 33.0267 109.664 33.36 109.424 33.76C109.211 34.16 109.104 34.64 109.104 35.2V49H103.984ZM135.449 49.48C133.795 49.48 132.329 49.2267 131.049 48.72C129.769 48.2133 128.689 47.4933 127.809 46.56C126.955 45.6267 126.302 44.5067 125.849 43.2C125.395 41.8667 125.169 40.3733 125.169 38.72C125.169 37.04 125.395 35.5333 125.849 34.2C126.329 32.8667 126.995 31.7333 127.849 30.8C128.702 29.8667 129.729 29.1467 130.929 28.64C132.155 28.1333 133.529 27.88 135.049 27.88C136.542 27.88 137.889 28.1333 139.089 28.64C140.289 29.12 141.302 29.8133 142.129 30.72C142.982 31.6267 143.635 32.72 144.089 34C144.542 35.28 144.769 36.6933 144.769 38.24V39.92H130.289V40.44C130.289 41.9333 130.755 43.1467 131.689 44.08C132.622 44.9867 133.929 45.44 135.609 45.44C136.889 45.44 137.982 45.1867 138.889 44.68C139.822 44.1467 140.595 43.4533 141.209 42.6L144.129 45.52C143.382 46.6133 142.289 47.5467 140.849 48.32C139.435 49.0933 137.635 49.48 135.449 49.48ZM135.089 31.64C133.649 31.64 132.489 32.0933 131.609 33C130.729 33.9067 130.289 35.1067 130.289 36.6V36.88H139.649V36.52C139.649 35.0267 139.235 33.84 138.409 32.96C137.609 32.08 136.502 31.64 135.089 31.64ZM147.953 44.96H153.073V32.4H147.953V28.36H158.193V34H158.513C158.7 33.28 158.953 32.5867 159.273 31.92C159.62 31.2267 160.046 30.6267 160.553 30.12C161.086 29.5867 161.726 29.16 162.473 28.84C163.22 28.52 164.113 28.36 165.153 28.36H167.393V33.16H163.153C161.606 33.16 160.393 33.6133 159.513 34.52C158.633 35.4267 158.193 36.5867 158.193 38V44.96H165.353V49H147.953V44.96ZM169.938 44.96H175.058V32.4H169.938V28.36H180.178V34H180.498C180.684 33.28 180.938 32.5867 181.258 31.92C181.604 31.2267 182.031 30.6267 182.538 30.12C183.071 29.5867 183.711 29.16 184.458 28.84C185.204 28.52 186.098 28.36 187.137 28.36H189.378V33.16H185.138C183.591 33.16 182.378 33.6133 181.498 34.52C180.618 35.4267 180.178 36.5867 180.178 38V44.96H187.338V49H169.938V44.96Z" fill="#FEFEFE"/>
<path d="M73.2088 25.2315H64.1776C63.92 23.7505 63.4451 22.4384 62.7528 21.2955C62.0606 20.1364 61.1993 19.1544 60.169 18.3494C59.1387 17.5445 57.9635 16.9408 56.6435 16.5384C55.3395 16.1198 53.9309 15.9105 52.4176 15.9105C49.7292 15.9105 47.3466 16.5866 45.2699 17.9389C43.1932 19.2751 41.5672 21.2391 40.392 23.831C39.2169 26.4067 38.6293 29.554 38.6293 33.2727C38.6293 37.0559 39.2169 40.2434 40.392 42.8352C41.5833 45.411 43.2093 47.3589 45.2699 48.679C47.3466 49.983 49.7211 50.6349 52.3935 50.6349C53.8745 50.6349 55.259 50.4418 56.5469 50.0554C57.8509 49.6529 59.018 49.0653 60.0483 48.2926C61.0947 47.5199 61.9721 46.5701 62.6804 45.4432C63.4048 44.3163 63.9039 43.0284 64.1776 41.5795L73.2088 41.6278C72.8707 43.9782 72.1383 46.1837 71.0114 48.2443C69.9006 50.3049 68.4437 52.1241 66.6406 53.7017C64.8376 55.2633 62.7287 56.4867 60.3139 57.3722C57.8991 58.2415 55.2188 58.6761 52.2727 58.6761C47.9261 58.6761 44.0464 57.67 40.6335 55.6577C37.2206 53.6454 34.5322 50.7396 32.5682 46.9403C30.6042 43.1411 29.6222 38.5852 29.6222 33.2727C29.6222 27.9441 30.6122 23.3883 32.5923 19.6051C34.5724 15.8059 37.2689 12.9001 40.6818 10.8878C44.0947 8.87547 47.9583 7.86932 52.2727 7.86932C55.0256 7.86932 57.5852 8.25568 59.9517 9.02841C62.3182 9.80114 64.4271 10.9361 66.2784 12.4332C68.1297 13.9143 69.651 15.7334 70.8423 17.8906C72.0497 20.0317 72.8385 22.4787 73.2088 25.2315Z" fill="#FEFEFE"/>
</svg>
