<svg version="1.1" xmlns="http://www.w3.org/2000/svg" viewBox="0 0 363 402">
	<path fill="#FEFEFE" d="M107.096024,54.906784 C125.254227,65.461380 143.068588,75.880287 160.952209,86.178925 C163.546509,87.672905 164.598007,89.472832 164.728058,92.498375 C166.109283,124.632172 154.607162,151.146332 129.830185,171.582138 C102.179497,194.388153 70.442177,202.644363 35.065243,196.901917 C34.409294,196.795456 33.754982,196.654388 33.117603,196.468689 C32.810295,196.379166 32.544205,196.148163 31.836237,195.733078 C31.836237,194.349228 31.836248,192.718445 31.836235,191.087677 C31.835896,149.106018 31.817234,107.124352 31.850143,65.142731 C31.857004,56.389854 32.517811,47.869587 39.123478,40.973148 C47.993504,31.712679 61.765362,29.177961 72.975616,35.393581 C84.326538,41.687195 95.514893,48.274021 107.096024,54.906784z"/>
	<path fill="#FEFEFE" d="M32.004253,297.000000 C32.004253,271.546631 32.004253,246.593231 32.004253,221.268005 C53.393879,216.951569 74.156517,218.681213 94.515373,225.725479 C120.139778,234.591644 140.874039,249.518784 153.453964,274.246094 C159.920776,286.957397 162.614090,300.589020 162.424149,314.756287 C162.403488,316.296448 160.427551,318.331696 158.844009,319.251648 C133.667633,333.877808 108.418610,348.379242 83.155045,362.854797 C78.834084,365.330627 74.475883,367.789215 69.951256,369.853271 C53.432076,377.388977 32.768536,364.165680 32.603004,347.938873 C32.431488,331.125641 32.206089,314.312927 32.004253,297.000000z"/>
	<path fill="#FEFEFE" d="M182.414627,123.469589 C185.511871,116.792946 188.443375,110.459770 191.568542,103.708214 C209.482010,114.070816 227.165253,124.300247 244.904434,134.562027 C224.276520,179.649857 224.694916,224.890518 242.357529,270.821991 C224.407303,281.240204 206.441742,291.667328 188.086639,302.320526 C181.174683,293.360565 176.821152,283.189697 174.038330,272.421356 C161.019470,222.043701 163.998962,172.492172 182.414627,123.469589z"/>
	<path fill="#FEFEFE" d="M330.864441,189.304214 C337.319305,203.470291 333.575226,217.517303 319.932953,226.018555 C303.741241,236.108521 286.914429,245.179352 269.709381,255.067413 C255.545105,219.542572 255.926880,184.962036 271.943420,150.139847 C286.267700,158.433472 300.308502,166.219635 313.962891,174.632950 C319.650635,178.137527 324.527527,182.963150 329.733459,187.236374 C330.211456,187.628723 330.400635,188.372986 330.864441,189.304214z"/>
</svg>
